<?xml version="1.0" encoding="utf-8"?>
<svg viewBox="47.569 -203.191 900 898.187" width="900" height="898.187" xmlns="http://www.w3.org/2000/svg">
  <g transform="matrix(1, 0, 0, 1, 175.578982, 39.916947)">
    <rect x="-128.01" width="900" height="898.187" y="-243.108" style="fill: rgb(64, 206, 229);"/>
  </g>
  <path d="M 47.569 51.333 L 72.569 46.712 C 97.569 41.926 147.569 32.684 197.569 33.509 C 247.569 34.335 297.569 45.226 347.569 62.557 C 397.569 79.885 447.569 103.652 497.569 136.331 C 547.569 169.007 597.569 210.929 647.569 230.899 C 697.569 251.035 747.569 249.384 797.569 222.15 C 847.569 194.92 897.569 142.106 922.569 115.7 L 947.569 89.294 L 947.569 694.996 L 922.569 694.996 C 897.569 694.996 847.569 694.996 797.569 694.996 C 747.569 694.996 697.569 694.996 647.569 694.996 C 597.569 694.996 547.569 694.996 497.569 694.996 C 447.569 694.996 397.569 694.996 347.569 694.996 C 297.569 694.996 247.569 694.996 197.569 694.996 C 147.569 694.996 97.569 694.996 72.569 694.996 L 47.569 694.996 L 47.569 51.333 Z" style="fill: rgb(67, 216, 239);"/>
  <path d="M 47.569 143.484 L 72.569 139.524 C 97.569 135.422 147.569 127.505 197.569 128.211 C 247.569 128.92 297.569 138.251 347.569 153.1 C 397.569 167.947 447.569 188.312 497.569 216.312 C 547.569 244.31 597.569 280.232 647.569 297.341 C 697.569 314.595 747.569 313.179 797.569 289.846 C 847.569 266.514 897.569 221.261 922.569 198.635 L 947.569 176.01 L 947.569 694.996 L 922.569 694.996 C 897.569 694.996 847.569 694.996 797.569 694.996 C 747.569 694.996 697.569 694.996 647.569 694.996 C 597.569 694.996 547.569 694.996 497.569 694.996 C 447.569 694.996 397.569 694.996 347.569 694.996 C 297.569 694.996 247.569 694.996 197.569 694.996 C 147.569 694.996 97.569 694.996 72.569 694.996 L 47.569 694.996 L 47.569 143.484 Z" style="fill: rgb(99, 222, 241);"/>
  <path d="M 47.569 205.587 L 72.569 202.073 C 97.569 198.433 147.569 191.406 197.569 192.032 C 247.569 192.661 297.569 200.943 347.569 214.12 C 397.569 227.297 447.569 245.367 497.569 270.213 C 547.569 295.059 597.569 326.934 647.569 342.119 C 697.569 357.429 747.569 356.174 797.569 335.467 C 847.569 314.763 897.569 274.605 922.569 254.527 L 947.569 234.449 L 947.569 694.996 L 922.569 694.996 C 897.569 694.996 847.569 694.996 797.569 694.996 C 747.569 694.996 697.569 694.996 647.569 694.996 C 597.569 694.996 547.569 694.996 497.569 694.996 C 447.569 694.996 397.569 694.996 347.569 694.996 C 297.569 694.996 247.569 694.996 197.569 694.996 C 147.569 694.996 97.569 694.996 72.569 694.996 L 47.569 694.996 L 47.569 205.587 Z" style="fill: rgb(255, 255, 255);"/>
  <path d="M 47.569 258.038 L 72.569 254.901 C 97.569 251.651 147.569 245.377 197.569 245.937 C 247.569 246.498 297.569 253.893 347.569 265.657 C 397.569 277.421 447.569 293.555 497.569 315.739 C 547.569 337.922 597.569 366.381 647.569 379.938 C 697.569 393.607 747.569 392.486 797.569 373.999 C 847.569 355.513 897.569 319.66 922.569 301.734 L 947.569 283.807 L 947.569 694.996 L 922.569 694.996 C 897.569 694.996 847.569 694.996 797.569 694.996 C 747.569 694.996 697.569 694.996 647.569 694.996 C 597.569 694.996 547.569 694.996 497.569 694.996 C 447.569 694.996 397.569 694.996 347.569 694.996 C 297.569 694.996 247.569 694.996 197.569 694.996 C 147.569 694.996 97.569 694.996 72.569 694.996 L 47.569 694.996 L 47.569 258.038 Z" style="fill: rgb(152, 242, 208);"/>
  <path d="M 47.569 320.775 L 72.569 318.087 C 97.569 315.305 147.569 309.931 197.569 310.41 C 247.569 310.891 297.569 317.224 347.569 327.3 C 397.569 337.375 447.569 351.192 497.569 370.191 C 547.569 389.189 597.569 413.561 647.569 425.173 C 697.569 436.878 747.569 435.919 797.569 420.086 C 847.569 404.253 897.569 373.549 922.569 358.197 L 947.569 342.844 L 947.569 694.996 L 922.569 694.996 C 897.569 694.996 847.569 694.996 797.569 694.996 C 747.569 694.996 697.569 694.996 647.569 694.996 C 597.569 694.996 547.569 694.996 497.569 694.996 C 447.569 694.996 397.569 694.996 347.569 694.996 C 297.569 694.996 247.569 694.996 197.569 694.996 C 147.569 694.996 97.569 694.996 72.569 694.996 L 47.569 694.996 L 47.569 320.775 Z" style="fill: rgb(132, 239, 198);"/>
  <path d="M 47.569 355.138 L 72.569 352.698 C 97.569 350.171 147.569 345.291 197.569 345.727 C 247.569 346.163 297.569 351.914 347.569 361.064 C 397.569 370.214 447.569 382.764 497.569 400.018 C 547.569 417.271 597.569 439.406 647.569 449.95 C 697.569 460.582 747.569 459.709 797.569 445.331 C 847.569 430.953 897.569 403.067 922.569 389.124 L 947.569 375.182 L 947.569 694.996 L 922.569 694.996 C 897.569 694.996 847.569 694.996 797.569 694.996 C 747.569 694.996 697.569 694.996 647.569 694.996 C 597.569 694.996 547.569 694.996 497.569 694.996 C 447.569 694.996 397.569 694.996 347.569 694.996 C 297.569 694.996 247.569 694.996 197.569 694.996 C 147.569 694.996 97.569 694.996 72.569 694.996 L 47.569 694.996 L 47.569 355.138 Z" style="fill: rgb(125, 234, 192);"/>
</svg>