<?xml version="1.0" encoding="utf-8"?>
<svg viewBox="0 0 900 900" width="900px" height="900px" xmlns="http://www.w3.org/2000/svg">
  <g transform="matrix(1, 0, 0, 1, 128.009996, 243.108005)">
    <g>
      <rect x="-128.01" width="900" height="898.187" y="-243.108" style="fill: rgb(64, 206, 229);"/>
    </g>
    <path d="M -128.01 122.832 L -103.01 118.998 C -78.01 115.026 -28.01 107.358 21.99 108.042 C 71.99 108.728 121.99 117.765 171.99 132.144 C 221.99 146.522 271.99 166.242 321.99 193.355 C 371.99 220.468 421.99 255.252 471.99 271.821 C 521.99 288.528 571.99 287.158 621.99 264.562 C 671.99 241.969 721.99 198.148 746.99 176.238 L 771.99 154.329 L 771.99 656.892 L 746.99 656.892 C 721.99 656.892 671.99 656.892 621.99 656.892 C 571.99 656.892 521.99 656.892 471.99 656.892 C 421.99 656.892 371.99 656.892 321.99 656.892 C 271.99 656.892 221.99 656.892 171.99 656.892 C 121.99 656.892 71.99 656.892 21.99 656.892 C -28.01 656.892 -78.01 656.892 -103.01 656.892 L -128.01 656.892 L -128.01 122.832 Z" style="fill: rgb(255, 182, 18);"/>
    <path d="M -128.01 171.383 L -103.01 167.897 C -78.01 164.287 -28.01 157.316 21.99 157.937 C 71.99 158.561 121.99 166.777 171.99 179.849 C 221.99 192.92 271.99 210.847 321.99 235.495 C 371.99 260.143 421.99 291.764 471.99 306.827 C 521.99 322.015 571.99 320.77 621.99 300.228 C 671.99 279.689 721.99 239.852 746.99 219.934 L 771.99 200.016 L 771.99 656.892 L 746.99 656.892 C 721.99 656.892 671.99 656.892 621.99 656.892 C 571.99 656.892 521.99 656.892 471.99 656.892 C 421.99 656.892 371.99 656.892 321.99 656.892 C 271.99 656.892 221.99 656.892 171.99 656.892 C 121.99 656.892 71.99 656.892 21.99 656.892 C -28.01 656.892 -78.01 656.892 -103.01 656.892 L -128.01 656.892 L -128.01 171.383 Z" style="fill: rgb(255, 255, 255);"/>
    <path d="M -128.01 219.934 L -103.01 216.797 C -78.01 213.547 -28.01 207.273 21.99 207.833 C 71.99 208.394 121.99 215.789 171.99 227.553 C 221.99 239.317 271.99 255.451 321.99 277.635 C 371.99 299.818 421.99 328.277 471.99 341.834 C 521.99 355.503 571.99 354.382 621.99 335.895 C 671.99 317.409 721.99 281.556 746.99 263.63 L 771.99 245.703 L 771.99 656.892 L 746.99 656.892 C 721.99 656.892 671.99 656.892 621.99 656.892 C 571.99 656.892 521.99 656.892 471.99 656.892 C 421.99 656.892 371.99 656.892 321.99 656.892 C 271.99 656.892 221.99 656.892 171.99 656.892 C 121.99 656.892 71.99 656.892 21.99 656.892 C -28.01 656.892 -78.01 656.892 -103.01 656.892 L -128.01 656.892 L -128.01 219.934 Z" style="fill: rgb(167, 217, 212);"/>
    <path d="M -128.01 268.485 L -103.01 265.696 C -78.01 262.808 -28.01 257.23 21.99 257.728 C 71.99 258.227 121.99 264.8 171.99 275.258 C 221.99 285.715 271.99 300.056 321.99 319.775 C 371.99 339.493 421.99 364.789 471.99 376.841 C 521.99 388.99 571.99 387.994 621.99 371.561 C 671.99 355.128 721.99 323.26 746.99 307.326 L 771.99 291.391 L 771.99 656.892 L 746.99 656.892 C 721.99 656.892 671.99 656.892 621.99 656.892 C 571.99 656.892 521.99 656.892 471.99 656.892 C 421.99 656.892 371.99 656.892 321.99 656.892 C 271.99 656.892 221.99 656.892 171.99 656.892 C 121.99 656.892 71.99 656.892 21.99 656.892 C -28.01 656.892 -78.01 656.892 -103.01 656.892 L -128.01 656.892 L -128.01 268.485 Z" style=""/>
    <g>
      <path d="M -128.01 317.034 L -103.01 314.594 C -78.01 312.067 -28.01 307.187 21.99 307.623 C 71.99 308.059 121.99 313.81 171.99 322.96 C 221.99 332.11 271.99 344.66 321.99 361.914 C 371.99 379.167 421.99 401.302 471.99 411.846 C 521.99 422.478 571.99 421.605 621.99 407.227 C 671.99 392.849 721.99 364.963 746.99 351.02 L 771.99 337.078 L 771.99 656.892 L 746.99 656.892 C 721.99 656.892 671.99 656.892 621.99 656.892 C 571.99 656.892 521.99 656.892 471.99 656.892 C 421.99 656.892 371.99 656.892 321.99 656.892 C 271.99 656.892 221.99 656.892 171.99 656.892 C 121.99 656.892 71.99 656.892 21.99 656.892 C -28.01 656.892 -78.01 656.892 -103.01 656.892 L -128.01 656.892 L -128.01 317.034 Z" style="fill: rgb(238, 101, 179);"/>
    </g>
  </g>
</svg>