<svg viewBox="-12.982 10.913 590.614 450.161" width="590.614" height="450.161"><g><path stroke-linecap="round" stroke-linejoin="round" d="M 183.946 242.229 L 213.71 242.229 M 213.71 242.229 L 243.474 242.229 M 213.71 242.229 L 213.71 212.465 M 213.71 242.229 L 213.71 271.993 M 117.803 186.008 L 137.646 186.008 C 148.605 186.008 157.489 177.124 157.489 166.165 L 157.489 146.323 C 157.489 135.364 148.605 126.48 137.646 126.48 L 117.803 126.48 C 106.844 126.48 97.961 135.364 97.961 146.323 L 97.961 166.165 C 97.961 177.124 106.844 186.008 117.803 186.008 Z M 117.803 271.993 L 137.646 271.993 C 148.605 271.993 157.489 263.109 157.489 252.15 L 157.489 232.308 C 157.489 221.349 148.605 212.465 137.646 212.465 L 117.803 212.465 C 106.844 212.465 97.961 221.349 97.961 232.308 L 97.961 252.15 C 97.961 263.109 106.844 271.993 117.803 271.993 Z M 203.788 186.008 L 223.631 186.008 C 234.59 186.008 243.474 177.124 243.474 166.165 L 243.474 146.323 C 243.474 135.364 234.59 126.48 223.631 126.48 L 203.788 126.48 C 192.829 126.48 183.946 135.364 183.946 146.323 L 183.946 166.165 C 183.946 177.124 192.829 186.008 203.788 186.008 Z" style="fill: none; stroke-width: 1.5px;"></path><g transform="matrix(1, 0, 0, 1, 60.385967, -49.426235)"><rect style="fill: rgb(146, 246, 218);" transform="matrix(0.707107, 0.707107, -0.707107, 0.707107, 117.058708, -301.225037)" x="371.647" y="195.771" width="190" height="190" rx="5" ry="5"></rect><rect style="fill: rgb(40, 44, 69);" transform="matrix(0.707107, 0.707107, -0.707107, 0.707107, 258.531372, -159.425644)" x="371.648" y="195.77" width="190" height="190" rx="5" ry="5"></rect><rect style="fill: rgb(255, 35, 226);" transform="matrix(0.707107, 0.707107, -0.707107, 0.707107, -24.311443, -159.425644)" x="371.648" y="195.77" width="190" height="190" rx="5" ry="5"></rect></g><path d="M -17.468 175.707 C -17.468 178.248 -18.124 180.375 -19.437 182.09 C -20.749 183.805 -22.517 185.107 -24.74 185.996 C -26.963 186.885 -29.387 187.33 -32.012 187.33 L -53.797 187.33 L -53.797 142.237 L -29.662 142.237 C -27.545 142.237 -25.714 142.797 -24.168 143.919 C -22.623 145.041 -21.437 146.481 -20.611 148.238 C -19.786 149.995 -19.373 151.827 -19.373 153.732 C -19.373 155.892 -19.924 157.945 -21.025 159.893 C -22.126 161.84 -23.735 163.28 -25.852 164.212 C -23.269 164.974 -21.226 166.35 -19.722 168.34 C -18.219 170.33 -17.468 172.786 -17.468 175.707 Z M -26.296 174.056 C -26.296 172.913 -26.529 171.886 -26.995 170.975 C -27.461 170.065 -28.085 169.345 -28.868 168.816 C -29.652 168.287 -30.551 168.022 -31.568 168.022 L -45.032 168.022 L -45.032 179.899 L -32.012 179.899 C -30.954 179.899 -29.99 179.634 -29.122 179.105 C -28.254 178.576 -27.566 177.867 -27.058 176.977 C -26.55 176.088 -26.296 175.114 -26.296 174.056 Z M -45.032 149.731 L -45.032 161.099 L -33.346 161.099 C -32.372 161.099 -31.483 160.867 -30.678 160.401 C -29.874 159.935 -29.228 159.279 -28.741 158.432 C -28.254 157.585 -28.011 156.569 -28.011 155.383 C -28.011 154.24 -28.233 153.245 -28.677 152.398 C -29.122 151.552 -29.715 150.895 -30.456 150.43 C -31.197 149.964 -32.033 149.731 -32.965 149.731 L -45.032 149.731 Z M -9.606 187.33 L -9.606 142.237 L -0.841 142.237 L -0.841 179.645 L 22.15 179.645 L 22.15 187.33 L -9.606 187.33 Z M 46.718 187.647 C 43.415 187.647 40.42 187.012 37.731 185.742 C 35.042 184.472 32.735 182.746 30.808 180.565 C 28.882 178.385 27.389 175.929 26.331 173.198 C 25.272 170.467 24.743 167.662 24.743 164.783 C 24.743 161.777 25.304 158.908 26.425 156.177 C 27.548 153.446 29.093 151.012 31.062 148.873 C 33.031 146.735 35.36 145.041 38.048 143.792 C 40.737 142.543 43.691 141.919 46.908 141.919 C 50.169 141.919 53.143 142.575 55.831 143.888 C 58.52 145.2 60.818 146.958 62.723 149.159 C 64.628 151.361 66.11 153.817 67.169 156.527 C 68.227 159.236 68.756 162.031 68.756 164.91 C 68.756 167.874 68.206 170.721 67.105 173.452 C 66.004 176.183 64.469 178.618 62.5 180.756 C 60.532 182.894 58.203 184.578 55.514 185.805 C 52.825 187.033 49.894 187.647 46.718 187.647 Z M 33.635 164.783 C 33.635 166.731 33.931 168.615 34.524 170.436 C 35.116 172.256 35.974 173.876 37.095 175.294 C 38.218 176.713 39.594 177.835 41.224 178.66 C 42.854 179.486 44.707 179.899 46.781 179.899 C 48.899 179.899 50.783 179.465 52.434 178.596 C 54.085 177.729 55.461 176.564 56.562 175.103 C 57.663 173.643 58.499 172.013 59.07 170.213 C 59.642 168.414 59.928 166.604 59.928 164.783 C 59.928 162.835 59.621 160.962 59.007 159.162 C 58.393 157.363 57.525 155.754 56.403 154.335 C 55.281 152.917 53.905 151.795 52.275 150.969 C 50.645 150.144 48.814 149.731 46.781 149.731 C 44.622 149.731 42.727 150.165 41.097 151.032 C 39.467 151.901 38.102 153.055 37.001 154.494 C 35.9 155.934 35.063 157.543 34.491 159.321 C 33.92 161.099 33.635 162.92 33.635 164.783 Z M 73.765 164.466 C 73.765 161.713 74.262 159.014 75.258 156.367 C 76.252 153.721 77.703 151.308 79.608 149.127 C 81.513 146.947 83.842 145.211 86.594 143.919 C 89.346 142.628 92.48 141.983 95.994 141.983 C 100.143 141.983 103.732 142.893 106.76 144.714 C 109.787 146.534 112.041 148.905 113.523 151.827 L 106.791 156.463 C 106.029 154.77 105.034 153.425 103.806 152.43 C 102.578 151.435 101.265 150.736 99.868 150.334 C 98.471 149.932 97.095 149.731 95.74 149.731 C 93.538 149.731 91.622 150.175 89.992 151.065 C 88.362 151.954 86.996 153.118 85.895 154.558 C 84.795 155.997 83.98 157.606 83.451 159.385 C 82.921 161.163 82.656 162.941 82.656 164.72 C 82.656 166.71 82.974 168.625 83.609 170.467 C 84.244 172.309 85.144 173.939 86.309 175.357 C 87.473 176.776 88.87 177.898 90.501 178.723 C 92.13 179.549 93.919 179.962 95.867 179.962 C 97.264 179.962 98.682 179.73 100.122 179.264 C 101.562 178.798 102.895 178.057 104.123 177.041 C 105.351 176.025 106.304 174.712 106.981 173.103 L 114.158 177.231 C 113.269 179.475 111.819 181.381 109.808 182.947 C 107.797 184.514 105.542 185.7 103.044 186.504 C 100.545 187.309 98.069 187.711 95.613 187.711 C 92.395 187.711 89.452 187.044 86.785 185.71 C 84.117 184.376 81.82 182.598 79.894 180.375 C 77.967 178.152 76.464 175.654 75.385 172.88 C 74.305 170.107 73.765 167.302 73.765 164.466 Z M 121.072 187.33 L 121.072 142.3 L 129.836 142.3 L 129.836 163.703 L 148.763 142.237 L 158.417 142.237 L 141.141 162.243 L 159.496 187.33 L 149.589 187.33 L 135.552 167.895 L 129.836 173.865 L 129.836 187.33 L 121.072 187.33 Z M 202.481 142.237 L 202.481 187.33 L 193.779 187.33 L 193.779 168.086 L 173.329 168.086 L 173.329 187.33 L 164.564 187.33 L 164.564 142.237 L 173.329 142.237 L 173.329 160.464 L 193.779 160.464 L 193.779 142.237 L 202.481 142.237 Z M 225.145 142.237 L 234.037 142.237 L 250.613 187.33 L 241.595 187.33 L 237.403 176.088 L 221.652 176.088 L 217.524 187.33 L 208.505 187.33 L 225.145 142.237 Z M 235.815 169.928 L 229.591 151.319 L 223.113 169.928 L 235.815 169.928 Z M 273.915 187.647 C 270.316 187.647 267.257 187.044 264.738 185.837 C 262.218 184.63 260.186 182.969 258.641 180.852 C 257.095 178.735 255.962 176.332 255.243 173.643 C 254.523 170.954 254.163 168.149 254.163 165.228 L 254.163 142.237 L 262.927 142.237 L 262.927 165.228 C 262.927 167.091 263.108 168.901 263.468 170.657 C 263.827 172.415 264.431 173.992 265.277 175.39 C 266.124 176.787 267.246 177.888 268.643 178.692 C 270.041 179.497 271.777 179.899 273.851 179.899 C 275.968 179.899 277.736 179.486 279.155 178.66 C 280.573 177.835 281.695 176.723 282.521 175.326 C 283.347 173.929 283.95 172.351 284.331 170.594 C 284.712 168.837 284.902 167.048 284.902 165.228 L 284.902 142.237 L 293.603 142.237 L 293.603 165.228 C 293.603 168.319 293.233 171.219 292.493 173.929 C 291.751 176.639 290.587 179.02 288.999 181.073 C 287.411 183.127 285.368 184.736 282.87 185.9 C 280.372 187.065 277.387 187.647 273.915 187.647 Z M 330.301 154.05 C 330.005 153.753 329.465 153.351 328.682 152.843 C 327.898 152.335 326.946 151.848 325.824 151.382 C 324.702 150.916 323.484 150.503 322.172 150.143 C 320.859 149.784 319.525 149.604 318.17 149.604 C 315.799 149.604 314.011 150.048 312.804 150.938 C 311.597 151.827 310.994 153.076 310.994 154.685 C 310.994 155.913 311.375 156.887 312.137 157.606 C 312.899 158.326 314.042 158.94 315.566 159.448 C 317.091 159.956 318.996 160.507 321.282 161.099 C 324.246 161.819 326.819 162.698 329 163.735 C 331.18 164.772 332.852 166.127 334.017 167.799 C 335.181 169.472 335.763 171.685 335.763 174.437 C 335.763 176.85 335.318 178.914 334.429 180.629 C 333.54 182.344 332.312 183.731 330.746 184.789 C 329.179 185.848 327.401 186.62 325.411 187.107 C 323.421 187.594 321.304 187.838 319.06 187.838 C 316.815 187.838 314.571 187.605 312.327 187.139 C 310.083 186.673 307.924 186.006 305.849 185.138 C 303.774 184.27 301.869 183.223 300.133 181.995 L 304.007 174.437 C 304.388 174.818 305.066 175.315 306.04 175.929 C 307.013 176.543 308.199 177.157 309.596 177.771 C 310.994 178.385 312.518 178.904 314.169 179.327 C 315.82 179.751 317.493 179.962 319.187 179.962 C 321.558 179.962 323.357 179.56 324.585 178.756 C 325.813 177.951 326.427 176.808 326.427 175.326 C 326.427 173.971 325.94 172.913 324.966 172.15 C 323.992 171.388 322.637 170.721 320.901 170.149 C 319.165 169.578 317.112 168.954 314.741 168.276 C 311.904 167.472 309.533 166.572 307.627 165.577 C 305.722 164.582 304.304 163.322 303.372 161.798 C 302.441 160.274 301.975 158.368 301.975 156.082 C 301.975 152.991 302.705 150.398 304.167 148.301 C 305.627 146.206 307.606 144.618 310.104 143.538 C 312.603 142.459 315.376 141.919 318.424 141.919 C 320.541 141.919 322.542 142.152 324.427 142.618 C 326.311 143.083 328.078 143.697 329.729 144.459 C 331.381 145.222 332.863 146.047 334.175 146.936 L 330.301 154.05 Z" style="fill: rgb(51, 51, 51); white-space: pre;" transform="matrix(0.707107, -0.707107, 0.707107, 0.707107, -75.293743, 147.981829)"></path></g></svg>
