<svg id="visual" viewBox="0 0 900 600" width="900" height="600" xmlns="http://www.w3.org/2000/svg" xmlns:xlink="http://www.w3.org/1999/xlink" version="1.1"><rect x="0" y="0" width="900" height="600" fill="#6fbffc"></rect><defs><linearGradient id="grad1_0" x1="33.3%" y1="0%" x2="100%" y2="100%"><stop offset="20%" stop-color="#3c92fa" stop-opacity="1"></stop><stop offset="80%" stop-color="#3c92fa" stop-opacity="1"></stop></linearGradient></defs><defs><linearGradient id="grad1_1" x1="33.3%" y1="0%" x2="100%" y2="100%"><stop offset="20%" stop-color="#3c92fa" stop-opacity="1"></stop><stop offset="80%" stop-color="#46a2fc" stop-opacity="1"></stop></linearGradient></defs><defs><linearGradient id="grad1_2" x1="33.3%" y1="0%" x2="100%" y2="100%"><stop offset="20%" stop-color="#59b1fd" stop-opacity="1"></stop><stop offset="80%" stop-color="#46a2fc" stop-opacity="1"></stop></linearGradient></defs><defs><linearGradient id="grad1_3" x1="33.3%" y1="0%" x2="100%" y2="100%"><stop offset="20%" stop-color="#59b1fd" stop-opacity="1"></stop><stop offset="80%" stop-color="#6fbffc" stop-opacity="1"></stop></linearGradient></defs><defs><linearGradient id="grad2_0" x1="0%" y1="0%" x2="66.7%" y2="100%"><stop offset="20%" stop-color="#3c92fa" stop-opacity="1"></stop><stop offset="80%" stop-color="#3c92fa" stop-opacity="1"></stop></linearGradient></defs><defs><linearGradient id="grad2_1" x1="0%" y1="0%" x2="66.7%" y2="100%"><stop offset="20%" stop-color="#46a2fc" stop-opacity="1"></stop><stop offset="80%" stop-color="#3c92fa" stop-opacity="1"></stop></linearGradient></defs><defs><linearGradient id="grad2_2" x1="0%" y1="0%" x2="66.7%" y2="100%"><stop offset="20%" stop-color="#46a2fc" stop-opacity="1"></stop><stop offset="80%" stop-color="#59b1fd" stop-opacity="1"></stop></linearGradient></defs><defs><linearGradient id="grad2_3" x1="0%" y1="0%" x2="66.7%" y2="100%"><stop offset="20%" stop-color="#6fbffc" stop-opacity="1"></stop><stop offset="80%" stop-color="#59b1fd" stop-opacity="1"></stop></linearGradient></defs><g transform="translate(900, 0)"><path d="M0 540.8C-76.4 532.5 -152.8 524.1 -199.4 481.3C-246 438.6 -262.8 361.4 -315.4 315.4C-367.9 269.3 -456.1 254.3 -499.7 207C-543.2 159.6 -542 79.8 -540.8 0L0 0Z" fill="#63b8fc"></path><path d="M0 405.6C-57.3 399.4 -114.6 393.1 -149.5 361C-184.5 328.9 -197.1 271.1 -236.5 236.5C-275.9 202 -342.1 190.8 -374.7 155.2C-407.4 119.7 -406.5 59.8 -405.6 0L0 0Z" fill="#4fa9fc"></path><path d="M0 270.4C-38.2 266.2 -76.4 262.1 -99.7 240.7C-123 219.3 -131.4 180.7 -157.7 157.7C-184 134.7 -228.1 127.2 -249.8 103.5C-271.6 79.8 -271 39.9 -270.4 0L0 0Z" fill="#409afb"></path><path d="M0 135.2C-19.1 133.1 -38.2 131 -49.8 120.3C-61.5 109.6 -65.7 90.4 -78.8 78.8C-92 67.3 -114 63.6 -124.9 51.7C-135.8 39.9 -135.5 19.9 -135.2 0L0 0Z" fill="#3c92fa"></path></g><g transform="translate(0, 600)"><path d="M0 -540.8C69.1 -520.2 138.1 -499.6 192.9 -465.6C247.6 -431.7 288.1 -384.4 342.2 -342.2C396.4 -300.1 464.3 -263.1 499.7 -207C535 -150.8 537.9 -75.4 540.8 0L0 0Z" fill="#63b8fc"></path><path d="M0 -405.6C51.8 -390.2 103.6 -374.7 144.7 -349.2C185.7 -323.8 216.1 -288.3 256.7 -256.7C297.3 -225.1 348.2 -197.4 374.7 -155.2C401.3 -113.1 403.5 -56.5 405.6 0L0 0Z" fill="#4fa9fc"></path><path d="M0 -270.4C34.5 -260.1 69.1 -249.8 96.4 -232.8C123.8 -215.8 144 -192.2 171.1 -171.1C198.2 -150.1 232.1 -131.6 249.8 -103.5C267.5 -75.4 269 -37.7 270.4 0L0 0Z" fill="#409afb"></path><path d="M0 -135.2C17.3 -130.1 34.5 -124.9 48.2 -116.4C61.9 -107.9 72 -96.1 85.6 -85.6C99.1 -75 116.1 -65.8 124.9 -51.7C133.8 -37.7 134.5 -18.8 135.2 0L0 0Z" fill="#3c92fa"></path></g></svg>