<svg width="100%" height="100%" id="svg" viewBox="0 0 1440 700" xmlns="http://www.w3.org/2000/svg" class="transition duration-300 ease-in-out delay-150"><defs><linearGradient id="gradient" x1="0%" y1="50%" x2="100%" y2="50%"><stop offset="5%" stop-color="#002bdc44"></stop><stop offset="95%" stop-color="#32ded444"></stop></linearGradient></defs><path d="M 0,700 C 0,700 0,140 0,140 C 78.39230504981106,159.73136379251116 156.7846100996221,179.46272758502232 233,190 C 309.2153899003779,200.53727241497768 383.2538646513226,201.88045345242185 438,177 C 492.7461353486774,152.11954654757815 528.1999312950876,101.01545860529028 588,93 C 647.8000687049124,84.98454139470972 731.9464101683269,120.05771212641704 807,126 C 882.0535898316731,131.94228787358296 948.0144280316042,108.75369288904157 1022,108 C 1095.9855719683958,107.24630711095843 1177.9958777052561,128.9275163174167 1249,138 C 1320.0041222947439,147.0724836825833 1380.002061147372,143.53624184129166 1440,140 C 1440,140 1440,700 1440,700 Z" stroke="none" stroke-width="0" fill="url(#gradient)" class="transition-all duration-300 ease-in-out delay-150 path-0"></path><defs><linearGradient id="gradient" x1="0%" y1="50%" x2="100%" y2="50%"><stop offset="5%" stop-color="#002bdc66"></stop><stop offset="95%" stop-color="#32ded466"></stop></linearGradient></defs><path d="M 0,700 C 0,700 0,280 0,280 C 69.38646513225697,256.3991755410512 138.77293026451395,232.79835108210236 209,241 C 279.22706973548605,249.20164891789764 350.2947440742012,289.2057712126417 409,303 C 467.7052559257988,316.7942287873583 514.0480934386809,304.37856406733084 585,289 C 655.9519065613191,273.62143593266916 751.5128821710751,255.2799725180351 829,247 C 906.4871178289249,238.7200274819649 965.9003778770182,240.501545860529 1028,238 C 1090.0996221229818,235.498454139471 1154.885606320852,228.71384403984885 1224,235 C 1293.114393679148,241.28615596015115 1366.5571968395739,260.6430779800756 1440,280 C 1440,280 1440,700 1440,700 Z" stroke="none" stroke-width="0" fill="url(#gradient)" class="transition-all duration-300 ease-in-out delay-150 path-1"></path><defs><linearGradient id="gradient" x1="0%" y1="50%" x2="100%" y2="50%"><stop offset="5%" stop-color="#002bdc88"></stop><stop offset="95%" stop-color="#32ded488"></stop></linearGradient></defs><path d="M 0,700 C 0,700 0,420 0,420 C 61.23668842322226,429.389900377877 122.47337684644452,438.779800755754 196,422 C 269.5266231535555,405.220199244246 355.3431810374442,362.2706973548609 426,372 C 496.6568189625558,381.7293026451391 552.1538990037789,444.1374098248025 619,452 C 685.8461009962211,459.8625901751975 764.0412229474407,413.1796633459292 831,402 C 897.9587770525593,390.8203366540708 953.6812092064583,415.14393679148054 1019,436 C 1084.3187907935417,456.85606320851946 1159.2339402267262,474.24458948814845 1231,471 C 1302.7660597732738,467.75541051185155 1371.383029886637,443.8777052559258 1440,420 C 1440,420 1440,700 1440,700 Z" stroke="none" stroke-width="0" fill="url(#gradient)" class="transition-all duration-300 ease-in-out delay-150 path-2"></path><defs><linearGradient id="gradient" x1="0%" y1="50%" x2="100%" y2="50%"><stop offset="5%" stop-color="#002bdcff"></stop><stop offset="95%" stop-color="#32ded4ff"></stop></linearGradient></defs><path d="M 0,700 C 0,700 0,560 0,560 C 65.73548608725523,572.8491927172793 131.47097217451045,585.6983854345586 205,574 C 278.52902782548955,562.3016145654414 359.8515973892133,526.055650979045 419,526 C 478.1484026107867,525.944349020955 515.1226382686361,562.0790106492615 583,567 C 650.8773617313639,571.9209893507385 749.657849536242,545.6283064239093 833,550 C 916.342150463758,554.3716935760907 984.2459635863963,589.4077636551013 1038,606 C 1091.7540364136037,622.5922363448987 1131.3582961181726,620.7406389556853 1196,610 C 1260.6417038818274,599.2593610443147 1350.3208519409136,579.6296805221573 1440,560 C 1440,560 1440,700 1440,700 Z" stroke="none" stroke-width="0" fill="url(#gradient)" class="transition-all duration-300 ease-in-out delay-150 path-3"></path></svg>